<svg xmlns="http://www.w3.org/2000/svg" viewBox="0 0 1600 1000" role="img" aria-labelledby="title desc">
  <title id="title">Capital stack editorial graphic</title>
  <desc id="desc">Layered architectural blocks and financing lines in Lighthouse brand colors.</desc>
  <defs>
    <linearGradient id="bg" x1="0" x2="1" y1="0" y2="1">
      <stop offset="0" stop-color="#17224f"/>
      <stop offset="1" stop-color="#3b4c8a"/>
    </linearGradient>
    <linearGradient id="paper" x1="0" x2="1" y1="0" y2="1">
      <stop offset="0" stop-color="#fbfaf7"/>
      <stop offset="1" stop-color="#f2f0ea"/>
    </linearGradient>
  </defs>
  <rect width="1600" height="1000" fill="url(#bg)"/>
  <g opacity=".18" stroke="#fbfaf7" stroke-width="2">
    <path d="M160 170H1440M160 310H1440M160 450H1440M160 590H1440M160 730H1440M260 90V910M440 90V910M620 90V910M800 90V910M980 90V910M1160 90V910M1340 90V910"/>
  </g>
  <g transform="translate(330 205)">
    <rect x="0" y="440" width="900" height="100" rx="8" fill="#b79a56"/>
    <rect x="0" y="300" width="760" height="100" rx="8" fill="url(#paper)"/>
    <rect x="0" y="160" width="620" height="100" rx="8" fill="#fbfaf7" opacity=".92"/>
    <rect x="0" y="20" width="480" height="100" rx="8" fill="#f2f0ea"/>
    <g fill="none" stroke="#356874" stroke-width="10" stroke-linecap="round">
      <path d="M110 490H790"/>
      <path d="M110 350H650"/>
      <path d="M110 210H510"/>
      <path d="M110 70H370"/>
    </g>
    <g fill="#17224f">
      <circle cx="110" cy="490" r="16"/>
      <circle cx="110" cy="350" r="16"/>
      <circle cx="110" cy="210" r="16"/>
      <circle cx="110" cy="70" r="16"/>
    </g>
  </g>
  <path d="M1175 180c105 89 163 194 173 315 11 136-43 253-162 352" fill="none" stroke="#fbfaf7" stroke-linecap="round" stroke-width="18" opacity=".18"/>
</svg>
