<svg xmlns="http://www.w3.org/2000/svg" viewBox="0 0 1600 1000" role="img" aria-labelledby="title desc">
  <title id="title">Neighborhood investment editorial graphic</title>
  <desc id="desc">Civic blocks, housing, and neighborhood circulation in Lighthouse brand colors.</desc>
  <rect width="1600" height="1000" fill="#f2f0ea"/>
  <path d="M90 760 1510 480" stroke="#3b4c8a" stroke-width="60" stroke-linecap="round"/>
  <path d="M115 760 1485 490" stroke="#fbfaf7" stroke-width="10" stroke-dasharray="40 38" opacity=".65"/>
  <g fill="#fbfaf7" stroke="#cbc6b9" stroke-width="4">
    <rect x="210" y="230" width="310" height="220" rx="10"/>
    <rect x="600" y="170" width="250" height="280" rx="10"/>
    <rect x="930" y="245" width="420" height="220" rx="10"/>
    <rect x="275" y="570" width="360" height="205" rx="10"/>
    <rect x="760" y="580" width="260" height="205" rx="10"/>
    <rect x="1100" y="600" width="240" height="180" rx="10"/>
  </g>
  <g fill="#17224f">
    <path d="M270 405V300l95-55 95 55v105"/>
    <path d="M660 410V260h130v150"/>
    <path d="M1000 420V315h280v105"/>
    <path d="M350 735V645h210v90"/>
    <path d="M820 740V645h140v95"/>
  </g>
  <g fill="#b79a56">
    <circle cx="1195" cy="690" r="64"/>
    <rect x="1015" y="330" width="250" height="20" rx="10"/>
    <rect x="315" y="670" width="285" height="18" rx="9"/>
  </g>
  <path d="M180 140c150 75 290 80 420 15 165-83 330-62 520 60 120 77 225 95 315 55" fill="none" stroke="#356874" stroke-width="18" stroke-linecap="round" opacity=".5"/>
</svg>
