<svg xmlns="http://www.w3.org/2000/svg" viewBox="0 0 1600 1000" role="img" aria-labelledby="title desc">
  <title id="title">Development process editorial graphic</title>
  <desc id="desc">Milestone path from site feasibility to delivery.</desc>
  <rect width="1600" height="1000" fill="#17224f"/>
  <g opacity=".16" stroke="#fbfaf7" stroke-width="2">
    <path d="M0 250H1600M0 500H1600M0 750H1600M320 0V1000M640 0V1000M960 0V1000M1280 0V1000"/>
  </g>
  <path d="M190 670C360 365 515 335 680 485s315 205 470-15 235-225 310-80" fill="none" stroke="#b79a56" stroke-width="18" stroke-linecap="round"/>
  <g>
    <circle cx="190" cy="670" r="56" fill="#fbfaf7"/>
    <circle cx="520" cy="390" r="56" fill="#fbfaf7"/>
    <circle cx="800" cy="575" r="56" fill="#fbfaf7"/>
    <circle cx="1120" cy="500" r="56" fill="#fbfaf7"/>
    <circle cx="1460" cy="390" r="56" fill="#fbfaf7"/>
  </g>
  <g fill="#3b4c8a">
    <rect x="148" y="628" width="84" height="84" rx="8"/>
    <path d="M480 430V352h80v78" />
    <rect x="758" y="533" width="84" height="84" rx="42"/>
    <path d="M1080 540l40-84 40 84z"/>
    <rect x="1418" y="348" width="84" height="84" rx="8"/>
  </g>
  <g fill="#f2f0ea" opacity=".28">
    <rect x="150" y="780" width="330" height="18" rx="9"/>
    <rect x="635" y="220" width="300" height="18" rx="9"/>
    <rect x="1085" y="670" width="350" height="18" rx="9"/>
  </g>
</svg>
