<svg xmlns="http://www.w3.org/2000/svg" viewBox="0 0 1200 630" role="img" aria-labelledby="title desc">
  <title id="title">Lighthouse Development Partners social preview</title>
  <desc id="desc">Open Graph image for Lighthouse Development Partners.</desc>
  <rect width="1200" height="630" fill="#0E1B2A"/>
  <path d="M0 106 686 0h514v228L0 374Z" fill="#C7A24A" opacity="0.26"/>
  <path d="M0 458c150-64 300-64 450 0s300 64 450 0 250-64 300-40v212H0Z" fill="#1F6F73" opacity="0.6"/>
  <g stroke="#D8D3C7" stroke-width="1.5" opacity="0.28">
    <path d="M0 90h1200M0 180h1200M0 270h1200M0 360h1200M0 450h1200"/>
    <path d="M100 0v630M220 0v630M340 0v630M460 0v630M580 0v630M700 0v630M820 0v630M940 0v630M1060 0v630"/>
  </g>
  <rect x="86" y="86" width="112" height="112" rx="8" fill="#FAF8F2"/>
  <path d="M142 108 160 176h-36l18-68Z" fill="#0E1B2A"/>
  <path d="M142 108 190 128h-42l-6-20Z" fill="#C7A24A"/>
  <path d="M142 108 94 128h42l6-20Z" fill="#1F6F73"/>
  <circle cx="142" cy="132" r="5" fill="#FAF8F2"/>
  <text x="86" y="310" fill="#FAF8F2" font-family="Georgia, serif" font-size="78" font-weight="600">Lighthouse</text>
  <text x="90" y="365" fill="#D8D3C7" font-family="Inter, Arial, sans-serif" font-size="25" font-weight="700" letter-spacing="5">DEVELOPMENT PARTNERS</text>
  <text x="90" y="454" fill="#FAF8F2" font-family="Inter, Arial, sans-serif" font-size="28" font-weight="600">Affordable Housing, Hospitality &amp; Mixed-Use Development</text>
  <text x="90" y="500" fill="#D8D3C7" font-family="Inter, Arial, sans-serif" font-size="22">Purpose-built communities with discipline and lasting value.</text>
</svg>
