<svg xmlns="http://www.w3.org/2000/svg" viewBox="0 0 1200 750" role="img" aria-labelledby="title desc">
  <title id="title">Reserve at Eastwood courtyard placeholder</title>
  <desc id="desc">Architectural courtyard placeholder with buildings, pool geometry, and landscape linework.</desc>
  <rect width="1200" height="750" fill="#F3EFE6"/>
  <path d="M0 0h1200v210H0Z" fill="#FAF8F2"/>
  <path d="M0 525h1200v225H0Z" fill="#0E1B2A"/>
  <g stroke="#D8D3C7" stroke-width="2" opacity="0.7">
    <path d="M90 0v750M210 0v750M330 0v750M450 0v750M570 0v750M690 0v750M810 0v750M930 0v750M1050 0v750"/>
    <path d="M0 120h1200M0 240h1200M0 360h1200M0 480h1200M0 600h1200"/>
  </g>
  <path d="M102 272h314v254H102Z" fill="#123B52"/>
  <path d="M784 272h314v254H784Z" fill="#123B52"/>
  <path d="M416 224h368v302H416Z" fill="#0E1B2A"/>
  <path d="M80 272h360l-48-58H128Z" fill="#C7A24A"/>
  <path d="M392 224h416l-54-64H446Z" fill="#C7A24A"/>
  <path d="M760 272h360l-48-58H808Z" fill="#C7A24A"/>
  <g fill="#FAF8F2">
    <rect x="150" y="318" width="44" height="38" rx="3"/>
    <rect x="235" y="318" width="44" height="38" rx="3"/>
    <rect x="320" y="318" width="44" height="38" rx="3"/>
    <rect x="150" y="410" width="44" height="38" rx="3"/>
    <rect x="235" y="410" width="44" height="38" rx="3"/>
    <rect x="320" y="410" width="44" height="38" rx="3"/>
    <rect x="470" y="284" width="48" height="40" rx="3"/>
    <rect x="576" y="284" width="48" height="40" rx="3"/>
    <rect x="682" y="284" width="48" height="40" rx="3"/>
    <rect x="470" y="396" width="48" height="40" rx="3"/>
    <rect x="576" y="396" width="48" height="40" rx="3"/>
    <rect x="682" y="396" width="48" height="40" rx="3"/>
    <rect x="832" y="318" width="44" height="38" rx="3"/>
    <rect x="917" y="318" width="44" height="38" rx="3"/>
    <rect x="1002" y="318" width="44" height="38" rx="3"/>
    <rect x="832" y="410" width="44" height="38" rx="3"/>
    <rect x="917" y="410" width="44" height="38" rx="3"/>
    <rect x="1002" y="410" width="44" height="38" rx="3"/>
  </g>
  <path d="M428 556c70-36 180-52 276-32 62 13 113 42 146 76-85 44-221 63-340 31-51-14-85-39-82-75Z" fill="#1F6F73"/>
  <path d="M480 567c50-18 128-25 196-10 44 10 78 28 96 48-62 22-156 30-238 13-35-8-55-25-54-51Z" fill="#FAF8F2" opacity="0.25"/>
  <g fill="none" stroke="#C7A24A" stroke-width="5" stroke-linecap="round">
    <path d="M160 604c60-26 120-26 180 0"/>
    <path d="M860 604c60-26 120-26 180 0"/>
  </g>
</svg>
