<svg xmlns="http://www.w3.org/2000/svg" viewBox="0 0 1200 750" role="img" aria-labelledby="title desc">
  <title id="title">Reserve at Eastwood exterior placeholder</title>
  <desc id="desc">Original architectural linework placeholder for a coastal affordable housing community.</desc>
  <defs>
    <linearGradient id="sky" x1="0" x2="1" y1="0" y2="1">
      <stop offset="0" stop-color="#FAF8F2"/>
      <stop offset="0.58" stop-color="#F3EFE6"/>
      <stop offset="1" stop-color="#D8D3C7"/>
    </linearGradient>
    <linearGradient id="beam" x1="0" x2="1">
      <stop offset="0" stop-color="#C7A24A" stop-opacity="0.55"/>
      <stop offset="1" stop-color="#C7A24A" stop-opacity="0"/>
    </linearGradient>
  </defs>
  <rect width="1200" height="750" fill="url(#sky)"/>
  <path d="M0 146 640 42 1200 120v148H0Z" fill="url(#beam)"/>
  <path d="M0 544h1200v206H0Z" fill="#0E1B2A"/>
  <path d="M0 544c130-43 258-51 385-22 129 30 259 30 392 0 145-33 286-24 423 28v72H0Z" fill="#1F6F73" opacity="0.32"/>
  <g stroke="#D8D3C7" stroke-width="2" opacity="0.65">
    <path d="M0 95h1200M0 190h1200M0 285h1200M0 380h1200M0 475h1200"/>
    <path d="M100 0v750M220 0v750M340 0v750M460 0v750M580 0v750M700 0v750M820 0v750M940 0v750M1060 0v750"/>
  </g>
  <g>
    <path d="M126 322h290v222H126Z" fill="#123B52"/>
    <path d="M416 286h332v258H416Z" fill="#0E1B2A"/>
    <path d="M748 344h312v200H748Z" fill="#123B52"/>
    <path d="M108 322h326l-42-52H150Z" fill="#C7A24A"/>
    <path d="M392 286h380l-48-58H438Z" fill="#C7A24A"/>
    <path d="M724 344h356l-42-52H770Z" fill="#C7A24A"/>
    <g fill="#FAF8F2">
      <rect x="166" y="356" width="42" height="42" rx="3"/>
      <rect x="242" y="356" width="42" height="42" rx="3"/>
      <rect x="318" y="356" width="42" height="42" rx="3"/>
      <rect x="166" y="432" width="42" height="42" rx="3"/>
      <rect x="242" y="432" width="42" height="42" rx="3"/>
      <rect x="318" y="432" width="42" height="42" rx="3"/>
      <rect x="468" y="326" width="46" height="44" rx="3"/>
      <rect x="552" y="326" width="46" height="44" rx="3"/>
      <rect x="636" y="326" width="46" height="44" rx="3"/>
      <rect x="468" y="410" width="46" height="44" rx="3"/>
      <rect x="552" y="410" width="46" height="44" rx="3"/>
      <rect x="636" y="410" width="46" height="44" rx="3"/>
      <rect x="806" y="382" width="44" height="42" rx="3"/>
      <rect x="886" y="382" width="44" height="42" rx="3"/>
      <rect x="966" y="382" width="44" height="42" rx="3"/>
      <rect x="806" y="458" width="44" height="42" rx="3"/>
      <rect x="886" y="458" width="44" height="42" rx="3"/>
      <rect x="966" y="458" width="44" height="42" rx="3"/>
    </g>
    <g fill="none" stroke="#1F6F73" stroke-width="8" stroke-linecap="round">
      <path d="M120 588c110-44 217-44 322 0"/>
      <path d="M450 588c120-44 237-44 350 0"/>
      <path d="M802 588c102-42 198-42 288 0"/>
    </g>
  </g>
  <g transform="translate(84 93)">
    <rect width="296" height="108" rx="8" fill="#FAF8F2" opacity="0.94"/>
    <text x="24" y="43" fill="#0E1B2A" font-family="Georgia, serif" font-size="30" font-weight="600">Reserve at Eastwood</text>
    <text x="24" y="76" fill="#5F6B76" font-family="Inter, Arial, sans-serif" font-size="15" font-weight="700">FORT MYERS, FLORIDA</text>
  </g>
</svg>
