<svg xmlns="http://www.w3.org/2000/svg" viewBox="0 0 1200 750" role="img" aria-labelledby="title desc">
  <title id="title">Reserve at Eastwood amenity placeholder</title>
  <desc id="desc">Abstract amenity area placeholder with pool, pickleball court, dog park, and playground geometry.</desc>
  <rect width="1200" height="750" fill="#FAF8F2"/>
  <path d="M0 522h1200v228H0Z" fill="#0E1B2A"/>
  <path d="M134 148h420v260H134Z" fill="#1F6F73"/>
  <path d="M170 184h348v188H170Z" fill="none" stroke="#FAF8F2" stroke-width="8"/>
  <path d="M344 184v188M170 278h348" stroke="#FAF8F2" stroke-width="5"/>
  <path d="M646 166c112-58 244-46 334 35 58 52 84 120 76 204-120 52-272 58-414 14-70-22-104-68-102-137 2-47 37-86 106-116Z" fill="#123B52"/>
  <path d="M690 212c78-33 170-25 232 22 40 30 60 70 58 118-82 25-184 27-278 4-46-12-70-37-68-75 1-27 20-50 56-69Z" fill="#1F6F73"/>
  <path d="M148 474c74-28 146-28 216 0M810 474c74-28 146-28 216 0" stroke="#C7A24A" stroke-width="7" stroke-linecap="round" fill="none"/>
  <g fill="#C7A24A">
    <rect x="176" y="560" width="84" height="56" rx="8"/>
    <rect x="288" y="560" width="84" height="56" rx="8"/>
    <rect x="400" y="560" width="84" height="56" rx="8"/>
  </g>
  <g fill="#FAF8F2">
    <circle cx="760" cy="592" r="24"/>
    <circle cx="842" cy="592" r="24"/>
    <circle cx="924" cy="592" r="24"/>
  </g>
  <g stroke="#D8D3C7" stroke-width="2" opacity="0.65">
    <path d="M0 100h1200M0 200h1200M0 300h1200M0 400h1200M0 500h1200"/>
    <path d="M100 0v750M220 0v750M340 0v750M460 0v750M580 0v750M700 0v750M820 0v750M940 0v750M1060 0v750"/>
  </g>
  <text x="92" y="92" fill="#0E1B2A" font-family="Georgia, serif" font-size="40" font-weight="600">Amenity Network</text>
  <text x="92" y="132" fill="#5F6B76" font-family="Inter, Arial, sans-serif" font-size="16" font-weight="700">POOL - PICKLEBALL - DOG PARK - PLAYGROUND</text>
</svg>
