<svg xmlns="http://www.w3.org/2000/svg" viewBox="0 0 1200 750" role="img" aria-labelledby="title desc">
  <title id="title">Reserve at Eastwood clubhouse placeholder</title>
  <desc id="desc">Architectural clubhouse placeholder with civic roofline and amenity terrace.</desc>
  <rect width="1200" height="750" fill="#FAF8F2"/>
  <path d="M0 540h1200v210H0Z" fill="#123B52"/>
  <path d="M114 398h972v156H114Z" fill="#0E1B2A"/>
  <path d="M78 398h1044L990 282H210Z" fill="#C7A24A"/>
  <path d="M235 282h730l-78-76H313Z" fill="#1F6F73"/>
  <path d="M300 432h96v122h-96Z" fill="#FAF8F2"/>
  <path d="M454 432h96v122h-96Z" fill="#FAF8F2"/>
  <path d="M608 432h96v122h-96Z" fill="#FAF8F2"/>
  <path d="M762 432h96v122h-96Z" fill="#FAF8F2"/>
  <path d="M916 432h96v122h-96Z" fill="#FAF8F2"/>
  <g fill="none" stroke="#D8D3C7" stroke-width="2" opacity="0.7">
    <path d="M0 116h1200M0 232h1200M0 348h1200M0 464h1200M0 580h1200"/>
    <path d="M120 0v750M240 0v750M360 0v750M480 0v750M600 0v750M720 0v750M840 0v750M960 0v750M1080 0v750"/>
  </g>
  <path d="M140 610h920" stroke="#FAF8F2" stroke-width="10" stroke-linecap="round"/>
  <path d="M198 646c92-38 184-38 276 0M726 646c92-38 184-38 276 0" stroke="#1F6F73" stroke-width="7" stroke-linecap="round" fill="none"/>
  <text x="90" y="110" fill="#0E1B2A" font-family="Georgia, serif" font-size="44" font-weight="600">6,800 SF Clubhouse</text>
  <text x="92" y="150" fill="#5F6B76" font-family="Inter, Arial, sans-serif" font-size="17" font-weight="700">PLACEHOLDER RENDERING - APPROVED ARTWORK PENDING</text>
</svg>
