<svg xmlns="http://www.w3.org/2000/svg" viewBox="0 0 1600 1000" role="img" aria-labelledby="title desc">
  <title id="title">Master planning editorial graphic</title>
  <desc id="desc">Abstract master plan with parcels, open space, circulation, and mixed-use blocks.</desc>
  <rect width="1600" height="1000" fill="#f2f0ea"/>
  <g transform="translate(175 100)">
    <rect width="1250" height="800" rx="12" fill="#fbfaf7" stroke="#cbc6b9" stroke-width="4"/>
    <path d="M85 615C280 510 400 515 570 585s300 95 520-55" fill="none" stroke="#356874" stroke-width="64" stroke-linecap="round" opacity=".36"/>
    <path d="M105 275h1040M105 435h1040M105 710h1040M320 100v620M560 100v620M800 100v620M1040 100v620" stroke="#cbc6b9" stroke-width="4"/>
    <g fill="#17224f">
      <rect x="150" y="150" width="255" height="185" rx="8"/>
      <rect x="465" y="150" width="170" height="185" rx="8"/>
      <rect x="710" y="150" width="365" height="185" rx="8"/>
      <rect x="150" y="475" width="290" height="175" rx="8"/>
      <rect x="505" y="475" width="235" height="175" rx="8"/>
      <rect x="850" y="475" width="250" height="175" rx="8"/>
    </g>
    <g fill="#b79a56">
      <rect x="465" y="365" width="175" height="60" rx="6"/>
      <rect x="790" y="365" width="210" height="60" rx="6"/>
      <circle cx="1095" cy="230" r="56"/>
    </g>
    <path d="M185 765h875" stroke="#3b4c8a" stroke-width="18" stroke-linecap="round" stroke-dasharray="80 38"/>
  </g>
</svg>
