<svg xmlns="http://www.w3.org/2000/svg" viewBox="0 0 1600 1000" role="img" aria-labelledby="title desc">
  <title id="title">Building performance editorial graphic</title>
  <desc id="desc">Building envelope, solar path, and performance lines in an architectural style.</desc>
  <rect width="1600" height="1000" fill="#17224f"/>
  <g opacity=".18" stroke="#fbfaf7" stroke-width="2">
    <path d="M180 140H1420M180 300H1420M180 460H1420M180 620H1420M180 780H1420M320 100V900M520 100V900M720 100V900M920 100V900M1120 100V900M1320 100V900"/>
  </g>
  <path d="M260 640V345l265-145 265 145v295" fill="none" stroke="#fbfaf7" stroke-linejoin="round" stroke-width="18"/>
  <path d="M350 640V400h350v240M430 640V500h190v140M430 400v-84h190v84" fill="none" stroke="#b79a56" stroke-width="14" stroke-linejoin="round"/>
  <circle cx="1145" cy="300" r="96" fill="#b79a56"/>
  <g stroke="#b79a56" stroke-width="12" stroke-linecap="round">
    <path d="M1145 120v-70M1145 550v-70M925 300h-70M1435 300h-70M990 145l-52-52M1300 508l-52-52M1300 92l-52 52M990 455l-52 52"/>
  </g>
  <g fill="none" stroke="#356874" stroke-width="18" stroke-linecap="round">
    <path d="M980 665h335M935 735h430M1015 805h270"/>
  </g>
</svg>
